<?xml version="1.0" encoding="UTF-8"?>
<svg width="113px" height="33px" viewBox="0 0 113 33" version="1.1" xmlns="http://www.w3.org/2000/svg" xmlns:xlink="http://www.w3.org/1999/xlink">
    <!-- Generator: Sketch 55.2 (78181) - https://sketchapp.com -->
    <title>Group</title>
    <desc>Created with Sketch.</desc>
    <g id="Symbols" stroke="none" stroke-width="1" fill="none" fill-rule="evenodd">
        <g id="Elements/Macro/Logo/Default" transform="translate(-1.000000, -1.000000)">
            <g id="Group" transform="translate(1.000000, 1.000000)">
                <path d="M15.188301,21.9636807 L10.6683277,17.3550252 L0.160106181,11.5395999 C0.00223760622,11.4522328 -0.0549151266,11.25343 0.0324519799,11.0955614 C0.0716924236,11.0246556 0.135885637,10.970865 0.21256374,10.944637 L31.5881535,0.212490296 C31.7588739,0.154094699 31.9446091,0.245151938 32.0030047,0.415872331 C32.0260217,0.483162973 32.0264525,0.556126492 32.0042316,0.623684218 L21.4855073,32.6035454 C21.4291315,32.7749434 21.2444844,32.8681874 21.0730864,32.8118117 C20.9931492,32.7855189 20.9264402,32.7293952 20.8868593,32.6551348 L15.188301,21.9636807 Z M19.6809096,23.1 C19.9191536,23.1 20.1133713,23.0208008 20.2635686,22.8624 C20.4137658,22.7039992 20.4888634,22.5086412 20.4888634,22.27632 L20.4888634,18.80736 L22.7884241,18.80736 C23.5653065,18.80736 24.254132,18.6384017 24.8549212,18.30048 C25.4557103,17.9625583 25.9244224,17.492643 26.2610715,16.89072 C26.5977205,16.288797 26.7660425,15.6024039 26.7660425,14.83152 C26.7660425,14.028956 26.5977205,13.3188031 26.2610715,12.70104 C25.9244224,12.0832769 25.4557103,11.6001617 24.8549212,11.25168 C24.254132,10.9031983 23.5653065,10.72896 22.7884241,10.72896 L19.6809096,10.72896 C19.4530241,10.72896 19.2613959,10.8055192 19.1060194,10.95864 C18.9506429,11.1117608 18.8729558,11.3097588 18.8729558,11.55264 L18.8729558,22.27632 C18.8729558,22.5086412 18.9506429,22.7039992 19.1060194,22.8624 C19.2613959,23.0208008 19.4530241,23.1 19.6809096,23.1 Z M20.4888634,17.28672 L20.4888634,12.2496 L22.7884241,12.2496 C23.264912,12.2496 23.6844222,12.3604789 24.0469674,12.58224 C24.4095126,12.8040011 24.6943652,13.1075981 24.9015339,13.49304 C25.1087025,13.8784819 25.2122853,14.3246375 25.2122853,14.83152 C25.2122853,15.3067224 25.1087025,15.7291182 24.9015339,16.09872 C24.6943652,16.4683218 24.4095126,16.7587189 24.0469674,16.96992 C23.6844222,17.1811211 23.264912,17.28672 22.7884241,17.28672 L20.4888634,17.28672 Z" id="Combined-Shape" fill="#70E09F"></path>
                <path d="M19.4494176,10.2803435 C19.3462777,10.3184683 19.2533919,10.378247 19.1707593,10.45968 C19.1293904,10.5004483 19.0935288,10.5443979 19.0631745,10.591529 L10.6683277,17.3550256 L0.16010615,11.5395999 C0.00223757692,11.4522328 -0.0549151508,11.25343 0.0324519598,11.0955614 C0.0716924039,11.0246557 0.135885615,10.970865 0.212563716,10.944637 L32.209372,4.74117833e-14 L19.4494176,10.2803435 Z" id="Combined-Shape" fill="#15D164"></path>
                <path d="M29.9926784,22.77 C29.7647929,22.77 29.5757543,22.6934408 29.425557,22.54032 C29.2753597,22.3871992 29.2002622,22.1944812 29.2002622,21.96216 L29.2002622,14.91336 C29.2002622,14.6704788 29.2753597,14.4751207 29.425557,14.32728 C29.5757543,14.1794393 29.7647929,14.10552 29.9926784,14.10552 C30.2309224,14.10552 30.4225505,14.1794393 30.5675686,14.32728 C30.7125866,14.4751207 30.7850946,14.6704788 30.7850946,14.91336 L30.7850946,21.96216 C30.7850946,22.1944812 30.7125866,22.3871992 30.5675686,22.54032 C30.4225505,22.6934408 30.2309224,22.77 29.9926784,22.77 Z M29.9926784,12.69576 C29.7130007,12.69576 29.4721707,12.592801 29.2701813,12.38688 C29.0681918,12.180959 28.9671986,11.9354414 28.9671986,11.65032 C28.9671986,11.3651986 29.0681918,11.119681 29.2701813,10.91376 C29.4721707,10.707839 29.7130007,10.60488 29.9926784,10.60488 C30.2723561,10.60488 30.513186,10.707839 30.7151755,10.91376 C30.9171649,11.119681 31.0181582,11.3651986 31.0181582,11.65032 C31.0181582,11.9354414 30.9171649,12.180959 30.7151755,12.38688 C30.513186,12.592801 30.2723561,12.69576 29.9926784,12.69576 Z M37.2668518,22.83336 C36.4381771,22.83336 35.7001498,22.6406419 35.0527478,22.2552 C34.4053457,21.8697581 33.8977901,21.3470433 33.5300657,20.68704 C33.1623413,20.0270367 32.9784819,19.2799242 32.9784819,18.44568 C32.9784819,17.5903157 33.1597517,16.8300033 33.5222969,16.16472 C33.884842,15.4994367 34.3820394,14.9793619 35.0139038,14.60448 C35.6457683,14.2295981 36.3708477,14.04216 37.1891639,14.04216 C37.8003115,14.04216 38.3596585,14.1609588 38.8672217,14.39856 C39.374785,14.6361612 39.8305492,14.9925576 40.2345281,15.46776 C40.3795462,15.6367208 40.4313376,15.8109591 40.3899038,15.99048 C40.3484701,16.1700009 40.234529,16.3283993 40.0480772,16.46568 C39.9030592,16.5712805 39.7425059,16.6056002 39.5664125,16.56864 C39.3903191,16.5316798 39.2297658,16.4392807 39.0847478,16.29144 C38.5771845,15.7423173 37.9453296,15.46776 37.1891639,15.46776 C36.6608838,15.46776 36.1947613,15.5918388 35.7907824,15.84 C35.3868035,16.0881612 35.0708761,16.4339978 34.8429905,16.87752 C34.615105,17.3210422 34.5011639,17.843757 34.5011639,18.44568 C34.5011639,19.0159229 34.6176946,19.5227978 34.8507593,19.96632 C35.0838241,20.4098422 35.4075202,20.7609587 35.8218576,21.01968 C36.2361949,21.2784013 36.7178548,21.40776 37.2668518,21.40776 C37.629397,21.40776 37.947914,21.3628804 38.2224125,21.27312 C38.496911,21.1833596 38.7480992,21.043441 38.9759847,20.85336 C39.1417197,20.7160793 39.3126313,20.6395201 39.4887246,20.62368 C39.664818,20.6078399 39.8201922,20.6579994 39.9548518,20.77416 C40.1309452,20.9220007 40.2293488,21.0883191 40.2500657,21.27312 C40.2707825,21.4579209 40.2086329,21.6242393 40.0636148,21.77208 C39.3178076,22.4796035 38.3855626,22.83336 37.2668518,22.83336 Z M46.2812333,22.83336 C45.4422002,22.83336 44.7015833,22.6459219 44.0593605,22.27104 C43.4171376,21.8961581 42.9121716,21.3787233 42.5444472,20.71872 C42.1767228,20.0587167 41.9928634,19.3010443 41.9928634,18.44568 C41.9928634,17.5797557 42.1767228,16.8168033 42.5444472,16.1568 C42.9121716,15.4967967 43.4171376,14.9793619 44.0593605,14.60448 C44.7015833,14.2295981 45.4422002,14.04216 46.2812333,14.04216 C47.109908,14.04216 47.8453457,14.2295981 48.4875686,14.60448 C49.1297914,14.9793619 49.6347575,15.4967967 50.0024819,16.1568 C50.3702062,16.8168033 50.5540657,17.5797557 50.5540657,18.44568 C50.5540657,19.3010443 50.3727958,20.0587167 50.0102506,20.71872 C49.6477055,21.3787233 49.145329,21.8961581 48.5031061,22.27104 C47.8608833,22.6459219 47.1202664,22.83336 46.2812333,22.83336 Z M46.2812333,21.40776 C46.8198718,21.40776 47.2963526,21.2810413 47.7106899,21.0276 C48.1250273,20.7741587 48.4487235,20.4256822 48.6817882,19.98216 C48.914853,19.5386378 49.0313836,19.0264829 49.0313836,18.44568 C49.0313836,17.8648771 48.914853,17.3500822 48.6817882,16.90128 C48.4487235,16.4524778 48.1250273,16.1013613 47.7106899,15.84792 C47.2963526,15.5944787 46.8198718,15.46776 46.2812333,15.46776 C45.7425948,15.46776 45.266114,15.5944787 44.8517767,15.84792 C44.4374393,16.1013613 44.1111536,16.4524778 43.8729096,16.90128 C43.6346656,17.3500822 43.5155454,17.8648771 43.5155454,18.44568 C43.5155454,19.0264829 43.6346656,19.5386378 43.8729096,19.98216 C44.1111536,20.4256822 44.4374393,20.7741587 44.8517767,21.0276 C45.266114,21.2810413 45.7425948,21.40776 46.2812333,21.40776 Z M54.7594284,20.1748523 L56.3469905,14.70744 C56.3987827,14.5279191 56.4868281,14.3827206 56.6111293,14.27184 C56.7354305,14.1609594 56.906342,14.10552 57.1238691,14.10552 C57.3310378,14.10552 57.4993598,14.1609594 57.6288402,14.27184 C57.7583207,14.3827206 57.8437764,14.5279191 57.8852102,14.70744 L59.2884382,20.2821251 L60.9927246,14.83416 C61.1377427,14.3483976 61.4070579,14.10552 61.8006784,14.10552 C62.0907145,14.10552 62.2875218,14.208479 62.3911061,14.4144 C62.4946905,14.620321 62.4895113,14.8869584 62.3755686,15.21432 L60.0760079,22.24728 C60.0345741,22.3951207 59.9465288,22.5191995 59.8118691,22.61952 C59.6772095,22.7198405 59.5218353,22.77 59.345742,22.77 C59.180007,22.77 59.0246329,22.7198405 58.8796148,22.61952 C58.7345967,22.5191995 58.6413722,22.3951207 58.5999385,22.24728 L57.0754155,16.4982609 L55.4768865,22.24728 C55.4354527,22.3951207 55.3448178,22.5191995 55.204979,22.61952 C55.0651401,22.7198405 54.9071764,22.77 54.731083,22.77 C54.5653481,22.77 54.4125635,22.7198405 54.2727246,22.61952 C54.1328858,22.5191995 54.0370717,22.3951207 53.9852795,22.24728 L51.6857188,15.21432 C51.6028514,14.8869584 51.605441,14.620321 51.6934876,14.4144 C51.7815343,14.208479 51.975752,14.10552 52.2761466,14.10552 C52.4729568,14.10552 52.6360997,14.1609594 52.7655801,14.27184 C52.8950605,14.3827206 53.0012329,14.5701587 53.0841004,14.83416 L54.7594284,20.1748523 L54.7594284,20.1748523 Z M67.627268,22.83336 C66.7882349,22.83336 66.047618,22.6459219 65.4053952,22.27104 C64.7631723,21.8961581 64.2582062,21.3787233 63.8904819,20.71872 C63.5227575,20.0587167 63.338898,19.3010443 63.338898,18.44568 C63.338898,17.5797557 63.5227575,16.8168033 63.8904819,16.1568 C64.2582062,15.4967967 64.7631723,14.9793619 65.4053952,14.60448 C66.047618,14.2295981 66.7882349,14.04216 67.627268,14.04216 C68.4559426,14.04216 69.1913804,14.2295981 69.8336032,14.60448 C70.4758261,14.9793619 70.9807922,15.4967967 71.3485165,16.1568 C71.7162409,16.8168033 71.9001004,17.5797557 71.9001004,18.44568 C71.9001004,19.3010443 71.7188305,20.0587167 71.3562853,20.71872 C70.9937402,21.3787233 70.4913637,21.8961581 69.8491408,22.27104 C69.206918,22.6459219 68.4663011,22.83336 67.627268,22.83336 Z M67.627268,21.40776 C68.1659065,21.40776 68.6423873,21.2810413 69.0567246,21.0276 C69.471062,20.7741587 69.7947581,20.4256822 70.0278229,19.98216 C70.2608876,19.5386378 70.3774183,19.0264829 70.3774183,18.44568 C70.3774183,17.8648771 70.2608876,17.3500822 70.0278229,16.90128 C69.7947581,16.4524778 69.471062,16.1013613 69.0567246,15.84792 C68.6423873,15.5944787 68.1659065,15.46776 67.627268,15.46776 C67.0886295,15.46776 66.6121487,15.5944787 66.1978113,15.84792 C65.783474,16.1013613 65.4571882,16.4524778 65.2189443,16.90128 C64.9807003,17.3500822 64.8615801,17.8648771 64.8615801,18.44568 C64.8615801,19.0264829 64.9807003,19.5386378 65.2189443,19.98216 C65.4571882,20.4256822 65.783474,20.7741587 66.1978113,21.0276 C66.6121487,21.2810413 67.0886295,21.40776 67.627268,21.40776 Z M74.699453,17.35272 C74.699453,16.7191168 74.8522376,16.1515225 75.1578113,15.64992 C75.4633851,15.1483175 75.8751267,14.7496815 76.3930483,14.454 C76.91097,14.1583185 77.4806753,14.01048 78.1021813,14.01048 C78.7236873,14.01048 79.1872202,14.113439 79.492794,14.31936 C79.7983678,14.525281 79.9148984,14.7707986 79.8423894,15.05592 C79.8113141,15.2037607 79.751754,15.3172796 79.6637073,15.39648 C79.5756606,15.4756804 79.4746674,15.5258399 79.3607246,15.54696 C79.2467819,15.5680801 79.1224825,15.5628002 78.9878229,15.53112 C78.3248832,15.3938393 77.7292822,15.3832794 77.2010021,15.49944 C76.672722,15.6156006 76.2558013,15.8320784 75.9502275,16.14888 C75.6446537,16.4656816 75.4918691,16.8669576 75.4918691,17.35272 L74.699453,17.35272 Z M74.7149905,22.77 C74.4663881,22.77 74.27476,22.7040007 74.1401004,22.572 C74.0054407,22.4399993 73.9381119,22.2420013 73.9381119,21.978 L73.9381119,14.89752 C73.9381119,14.6440787 74.0054407,14.4487207 74.1401004,14.31144 C74.27476,14.1741593 74.4663881,14.10552 74.7149905,14.10552 C74.9739514,14.10552 75.1681691,14.1715193 75.2976495,14.30352 C75.4271299,14.43552 75.4918691,14.6335187 75.4918691,14.89752 L75.4918691,21.978 C75.4918691,22.2314413 75.4271299,22.4267993 75.2976495,22.56408 C75.1681691,22.7013607 74.9739514,22.77 74.7149905,22.77 Z M82.6572795,19.602 L81.6939501,18.52488 L86.4639847,14.18472 C86.6193612,14.0368793 86.7928624,13.9682399 86.9844934,13.9788 C87.1761244,13.9893601 87.3392673,14.0738392 87.4739269,14.23224 C87.618945,14.3906408 87.6862738,14.564879 87.6759154,14.75496 C87.6655569,14.945041 87.5826907,15.1139993 87.4273142,15.26184 L82.6572795,19.602 Z M81.9270136,22.77 C81.6991281,22.77 81.5152687,22.6987207 81.3754298,22.55616 C81.235591,22.4135993 81.1656726,22.2261612 81.1656726,21.99384 L81.1656726,11.17512 C81.1656726,10.9427988 81.235591,10.7553607 81.3754298,10.6128 C81.5152687,10.4702393 81.6991281,10.39896 81.9270136,10.39896 C82.1548992,10.39896 82.3387586,10.4702393 82.4785975,10.6128 C82.6184363,10.7553607 82.6883547,10.9427988 82.6883547,11.17512 L82.6883547,21.99384 C82.6883547,22.2261612 82.6184363,22.4135993 82.4785975,22.55616 C82.3387586,22.6987207 82.1548992,22.77 81.9270136,22.77 Z M87.4739269,22.6908 C87.308192,22.8280807 87.1243326,22.8888001 86.9223431,22.87296 C86.7203537,22.8571199 86.5520317,22.7647208 86.417372,22.59576 L83.2632449,18.61992 L84.3508749,17.57448 L87.5826899,21.62952 C87.7173496,21.7984808 87.7769097,21.980639 87.761372,22.176 C87.7458344,22.371361 87.6500203,22.5429593 87.4739269,22.6908 Z M89.9291474,17.73288 L95.1042476,17.73288 C95.0585881,17.3801146 94.9657686,17.0553963 94.8257882,16.75872 C94.628978,16.3415979 94.3493045,16.0116012 93.9867593,15.76872 C93.6242141,15.5258388 93.1839873,15.4044 92.6660657,15.4044 C92.075635,15.4044 91.5706689,15.5363987 91.1511524,15.8004 C90.7316358,16.0644013 90.4131177,16.4260777 90.1955917,16.88544 C90.0712239,17.1480733 89.9824094,17.4305523 89.9291474,17.73288 L89.9291474,17.73288 Z M89.9116204,19.00008 C89.9688819,19.3611565 90.0842553,19.6937949 90.257742,19.998 C90.5167028,20.4520823 90.8740634,20.8111187 91.3298345,21.07512 C91.7856055,21.3391213 92.3086986,21.47112 92.8991293,21.47112 C93.2202407,21.47112 93.549116,21.4104006 93.8857651,21.28896 C94.2224142,21.1675194 94.494319,21.0276008 94.7014876,20.8692 C94.8568641,20.7530394 95.0251862,20.69232 95.2064587,20.68704 C95.3877313,20.68176 95.5456951,20.7371994 95.6803547,20.85336 C95.8564481,21.0117608 95.9496726,21.185999 95.960031,21.37608 C95.9703894,21.566161 95.8875232,21.7298393 95.7114298,21.86712 C95.3592431,22.1522414 94.9216059,22.3845591 94.398505,22.56408 C93.8754041,22.7436009 93.3756172,22.83336 92.8991293,22.83336 C92.0393793,22.83336 91.2754563,22.6459219 90.6073373,22.27104 C89.9392184,21.8961581 89.4161254,21.3787233 89.0380425,20.71872 C88.6599597,20.0587167 88.4709212,19.3010443 88.4709212,18.44568 C88.4709212,17.5797557 88.6496015,16.8168033 89.0069674,16.1568 C89.3643334,15.4967967 89.8589411,14.9793619 90.4908056,14.60448 C91.12267,14.2295981 91.8477494,14.04216 92.6660657,14.04216 C93.4740235,14.04216 94.1680281,14.2243182 94.7481004,14.58864 C95.3281726,14.9529618 95.770989,15.4545568 96.0765628,16.09344 C96.3821366,16.7323232 96.5349212,17.4688758 96.5349212,18.30312 C96.5349212,18.503761 96.4675924,18.6700793 96.3329327,18.80208 C96.1982731,18.9340807 96.0273615,19.00008 95.8201928,19.00008 L89.9116204,19.00008 L89.9116204,19.00008 Z M98.9924472,17.35272 C98.9924472,16.7191168 99.1452318,16.1515225 99.4508056,15.64992 C99.7563793,15.1483175 100.168121,14.7496815 100.686043,14.454 C101.203964,14.1583185 101.773669,14.01048 102.395175,14.01048 C103.016681,14.01048 103.480214,14.113439 103.785788,14.31936 C104.091362,14.525281 104.207893,14.7707986 104.135384,15.05592 C104.104308,15.2037607 104.044748,15.3172796 103.956702,15.39648 C103.868655,15.4756804 103.767662,15.5258399 103.653719,15.54696 C103.539776,15.5680801 103.415477,15.5628002 103.280817,15.53112 C102.617877,15.3938393 102.022276,15.3832794 101.493996,15.49944 C100.965716,15.6156006 100.548796,15.8320784 100.243222,16.14888 C99.937648,16.4656816 99.7848634,16.8669576 99.7848634,17.35272 L98.9924472,17.35272 Z M99.0079847,22.77 C98.7593823,22.77 98.5677542,22.7040007 98.4330946,22.572 C98.2984349,22.4399993 98.2311061,22.2420013 98.2311061,21.978 L98.2311061,14.89752 C98.2311061,14.6440787 98.2984349,14.4487207 98.4330946,14.31144 C98.5677542,14.1741593 98.7593823,14.10552 99.0079847,14.10552 C99.2669456,14.10552 99.4611633,14.1715193 99.5906437,14.30352 C99.7201241,14.43552 99.7848634,14.6335187 99.7848634,14.89752 L99.7848634,21.978 C99.7848634,22.2314413 99.7201241,22.4267993 99.5906437,22.56408 C99.4611633,22.7013607 99.2669456,22.77 99.0079847,22.77 Z M108.550644,22.83336 C107.825553,22.83336 107.154855,22.7198411 106.538528,22.4928 C105.922201,22.2657589 105.443131,21.9780017 105.101303,21.62952 C104.945926,21.4605592 104.881187,21.2678411 104.907083,21.05136 C104.932979,20.8348789 105.033972,20.6580007 105.210066,20.52072 C105.417234,20.3517592 105.62181,20.2804799 105.8238,20.30688 C106.025789,20.3332801 106.19929,20.4256792 106.344308,20.58408 C106.520402,20.784721 106.802665,20.97216 107.191106,21.1464 C107.579547,21.3206409 108.012005,21.40776 108.488493,21.40776 C109.089283,21.40776 109.547636,21.307441 109.863569,21.1068 C110.179501,20.906159 110.342644,20.6474416 110.353002,20.33064 C110.363361,20.0138384 110.215755,19.7392812 109.910181,19.50696 C109.604607,19.2746388 109.04785,19.0845607 108.239892,18.93672 C107.19369,18.7255189 106.434947,18.4087221 105.963638,17.98632 C105.492329,17.5639179 105.256678,17.0464831 105.256678,16.434 C105.256678,15.8954373 105.412053,15.4492818 105.722806,15.09552 C106.033559,14.7417582 106.432352,14.4777609 106.919199,14.30352 C107.406045,14.1292791 107.913601,14.04216 108.441881,14.04216 C109.125537,14.04216 109.731497,14.1530389 110.259777,14.3748 C110.788057,14.5965611 111.207567,14.902798 111.51832,15.29352 C111.663338,15.4624808 111.730667,15.6393591 111.720308,15.82416 C111.70995,16.0089609 111.621905,16.1647194 111.45617,16.29144 C111.290435,16.4076006 111.093628,16.4445602 110.865742,16.40232 C110.637856,16.3600798 110.446228,16.2650407 110.290852,16.1172 C110.031891,15.8637587 109.752217,15.6895205 109.451823,15.59448 C109.151428,15.4994395 108.804426,15.45192 108.410806,15.45192 C107.955034,15.45192 107.569189,15.5311192 107.253256,15.68952 C106.937324,15.8479208 106.77936,16.0802385 106.77936,16.38648 C106.77936,16.576561 106.828562,16.7481592 106.926967,16.90128 C107.025373,17.0544008 107.21959,17.1916794 107.509626,17.31312 C107.799662,17.4345606 108.224352,17.5533594 108.783707,17.66952 C109.56059,17.8279208 110.174318,18.0285588 110.62491,18.27144 C111.075501,18.5143212 111.399198,18.7967984 111.596008,19.11888 C111.792818,19.4409616 111.891222,19.8131979 111.891222,20.2356 C111.891222,20.7213624 111.764333,21.159598 111.510551,21.55032 C111.25677,21.941042 110.883872,22.2525588 110.391846,22.48488 C109.89982,22.7172012 109.286092,22.83336 108.550644,22.83336 Z" id="Picoworkers" stroke="#203259" stroke-width="0.605000026" fill="#203259" fill-rule="nonzero"></path>
            </g>
        </g>
    </g>
</svg>